<?xml version="1.0" standalone="no"?>
<!DOCTYPE svg PUBLIC "-//W3C//DTD SVG 20010904//EN"
 "http://www.w3.org/TR/2001/REC-SVG-20010904/DTD/svg10.dtd">
<svg version="1.0" xmlns="http://www.w3.org/2000/svg"
 width="1166.000000pt" height="1280.000000pt" viewBox="0 0 1166.000000 1280.000000"
 preserveAspectRatio="xMidYMid meet">
<metadata>
Created by potrace 1.15, written by Peter Selinger 2001-2017
</metadata>
<g transform="translate(0.000000,1280.000000) scale(0.100000,-0.100000)"
fill="#000000" stroke="none">
<path d="M5700 12748 c0 -50 -25 -95 -76 -140 -49 -43 -56 -66 -45 -158 15
-136 -5 -199 -102 -327 -31 -40 -59 -82 -62 -94 -12 -38 5 -83 58 -152 228
-297 299 -438 273 -542 -4 -14 -21 -42 -40 -63 -42 -47 -47 -70 -54 -290 -6
-146 -10 -185 -22 -193 -9 -5 -47 -7 -90 -4 -86 7 -82 0 21 -40 45 -18 69 -33
77 -49 13 -30 29 -147 37 -286 13 -210 38 -288 210 -650 59 -124 122 -264 141
-312 55 -140 45 -150 -54 -57 -78 73 -117 92 -172 83 -33 -5 -47 -2 -80 20
-26 17 -63 29 -107 36 -50 7 -78 17 -108 40 -22 16 -64 41 -93 55 -65 31 -112
97 -112 158 0 51 52 107 100 107 47 0 90 47 90 98 0 31 -8 50 -36 83 -27 32
-34 50 -32 73 3 27 0 31 -24 34 -19 2 -30 -3 -38 -18 -18 -33 -4 -66 45 -112
25 -24 45 -48 45 -54 0 -29 -107 -71 -138 -55 -23 12 -42 60 -42 103 0 37 -33
102 -62 122 -12 9 -23 14 -25 12 -2 -2 5 -27 17 -55 11 -28 20 -72 20 -96 0
-49 -27 -115 -46 -115 -13 0 -42 69 -64 155 -20 78 -27 73 -32 -23 -7 -153
-73 -250 -176 -259 -58 -6 -91 17 -126 85 -13 26 -32 55 -42 64 -26 23 -125
68 -149 68 -17 -1 -16 -4 10 -25 17 -14 49 -34 72 -45 28 -13 45 -28 49 -44 8
-33 43 -64 126 -111 92 -52 99 -64 64 -105 -45 -55 -37 -57 175 -50 72 2 113
-1 130 -10 13 -7 56 -44 96 -81 71 -67 130 -104 205 -128 20 -7 39 -20 43 -29
7 -19 -14 -141 -28 -159 -6 -9 -30 -11 -81 -7 -91 7 -152 -11 -149 -44 3 -22
3 -22 -37 4 -21 14 -43 23 -49 20 -11 -7 -30 20 -99 141 -52 89 -91 129 -135
137 -49 9 -116 57 -230 163 -54 51 -103 93 -107 93 -5 0 -8 -19 -7 -42 l2 -43
-47 1 c-47 0 -47 0 -147 81 l-33 27 -38 -22 c-42 -24 -44 -23 -54 23 -4 17
-28 63 -53 103 -25 41 -47 88 -48 105 -2 26 -7 33 -30 37 -60 11 -91 110 -73
228 5 35 7 70 4 78 -10 25 -37 15 -52 -21 -13 -31 -16 -34 -39 -25 -84 32
-423 306 -403 326 4 3 -1 22 -9 42 -31 75 -8 215 54 320 13 24 23 46 20 48 -2
2 -25 -5 -51 -16 -59 -25 -84 -25 -116 0 -54 42 -70 12 -18 -32 29 -23 33 -32
32 -73 -1 -28 -7 -53 -17 -63 -15 -15 -19 -15 -49 1 -18 10 -52 33 -76 52 -45
36 -72 44 -72 22 0 -7 25 -37 55 -67 30 -30 55 -58 55 -62 0 -4 -16 -8 -35 -8
-45 0 -51 -15 -37 -93 6 -34 10 -62 8 -64 -2 -2 -22 12 -46 32 -40 33 -50 38
-67 33 -14 -4 -1 -33 37 -83 48 -63 62 -98 54 -140 -9 -52 -40 -88 -101 -120
-47 -24 -59 -35 -61 -57 -4 -35 2 -35 45 3 57 50 80 30 82 -72 1 -58 24 -88
88 -116 164 -73 182 -83 231 -133 60 -61 97 -120 114 -183 11 -41 10 -48 -6
-66 -10 -11 -28 -21 -40 -23 -15 -2 -21 -10 -21 -27 0 -20 5 -24 35 -25 21 -2
58 -17 90 -39 93 -60 272 -106 419 -107 84 -1 151 -14 162 -31 5 -8 9 -29 9
-46 0 -41 16 -43 25 -3 9 40 49 70 94 70 104 -1 286 -143 417 -325 23 -34 80
-130 125 -215 45 -85 104 -188 131 -229 26 -41 48 -78 48 -82 0 -19 -40 -7
-96 29 -67 44 -124 66 -136 54 -15 -15 17 -43 97 -85 122 -66 145 -127 60
-163 -46 -19 -109 -18 -126 2 -7 8 -16 41 -20 72 -7 47 -14 62 -43 90 -20 17
-44 32 -55 32 -27 0 -51 10 -51 22 0 5 11 26 25 46 14 20 25 42 25 49 0 24
-52 13 -116 -22 -34 -19 -65 -35 -68 -35 -3 0 -3 20 0 44 6 41 4 46 -34 84
-31 31 -58 46 -113 63 -63 19 -88 21 -203 17 -134 -5 -197 -20 -163 -39 9 -5
90 -13 181 -18 232 -13 246 -21 246 -157 l0 -94 50 -25 c52 -26 68 -54 55 -94
-11 -37 -40 -24 -136 61 -61 54 -89 70 -89 49 0 -26 56 -83 130 -133 110 -75
149 -117 143 -152 -7 -36 18 -70 82 -111 124 -80 269 -105 329 -57 52 40 72
-9 41 -97 -36 -102 -100 -144 -220 -144 -197 0 -389 106 -442 246 -28 71 -64
128 -121 189 -49 53 -67 59 -75 27 -5 -17 -11 -20 -31 -15 -37 9 -54 -2 -75
-49 -23 -51 -22 -51 -114 -75 -41 -10 -107 -35 -146 -54 -39 -20 -72 -36 -75
-36 -2 0 -10 33 -16 73 -16 97 -53 212 -106 330 -81 179 -185 347 -216 347
-15 0 0 -39 43 -112 21 -36 39 -70 39 -74 0 -4 -29 -4 -64 0 -61 6 -67 5 -98
-22 -18 -16 -42 -34 -53 -40 -38 -19 -174 -42 -254 -42 -115 0 -171 15 -221
57 -39 34 -42 35 -35 12 33 -106 141 -258 266 -373 94 -87 153 -129 369 -262
205 -126 245 -155 266 -197 21 -40 14 -80 -30 -152 -19 -32 -34 -61 -32 -63 8
-7 70 31 111 69 l43 40 27 -24 c51 -43 30 -98 -63 -165 -116 -83 -263 -137
-414 -153 -95 -9 -200 -41 -185 -55 3 -3 37 -1 76 6 286 48 662 -200 697 -460
5 -37 0 -68 -19 -132 -35 -117 -38 -131 -47 -241 -10 -123 -36 -181 -97 -215
-47 -26 -298 -67 -346 -56 -22 5 -33 17 -52 61 -23 51 -29 56 -95 86 -38 18
-70 36 -70 42 0 5 -18 28 -41 51 -36 36 -39 44 -28 61 10 16 9 29 -6 69 -67
185 -64 170 -65 331 0 90 -4 154 -10 158 -20 12 -32 -53 -33 -180 0 -108 4
-143 23 -209 l24 -79 -22 -38 c-15 -26 -22 -55 -22 -93 0 -45 -4 -58 -22 -70
-28 -20 -69 -20 -132 -1 -103 31 -214 11 -277 -51 -33 -32 -40 -35 -54 -24
-38 32 -165 192 -171 217 -5 18 1 42 20 80 34 69 33 110 -5 219 -62 178 -51
242 59 346 37 35 96 83 132 107 61 41 68 43 119 38 81 -9 154 -51 227 -132 47
-52 66 -67 75 -58 19 19 0 52 -64 103 -72 59 -244 147 -303 156 -31 4 -48 2
-68 -11 -14 -9 -33 -15 -41 -11 -12 4 -20 -5 -32 -32 -35 -85 -45 -100 -76
-112 -64 -24 -80 -35 -108 -77 -40 -57 -60 -118 -61 -178 0 -41 7 -63 41 -120
49 -85 71 -159 53 -177 -9 -9 -17 -9 -26 -3 -54 40 -74 49 -140 60 -119 21
-208 96 -191 162 4 17 0 32 -11 44 -20 23 -39 25 -30 4 3 -8 9 -22 12 -30 15
-36 -41 -10 -143 66 -117 89 -161 112 -201 107 -23 -3 -19 -7 40 -42 109 -63
348 -265 348 -294 0 -23 -199 -16 -276 10 -64 21 -68 21 -96 5 -44 -25 -70
-21 -119 18 -48 38 -79 44 -103 19 -22 -21 -20 -31 6 -40 21 -7 20 -9 -17 -25
-45 -21 -73 -23 -95 -9 -13 9 -11 14 13 35 32 29 34 35 8 35 -27 0 -51 37 -51
80 0 19 20 100 46 180 25 80 49 156 52 170 6 19 15 26 40 28 26 3 32 8 32 27
0 30 100 123 171 159 80 40 116 36 186 -22 32 -27 67 -51 77 -55 11 -4 74 1
140 12 93 15 415 41 514 41 55 0 -83 64 -196 90 -58 13 -76 8 -47 -14 18 -13
18 -14 -3 -25 -34 -18 -237 -35 -324 -27 -88 9 -157 38 -175 75 -18 38 -1 59
55 67 58 8 88 22 75 35 -20 20 -246 -43 -273 -76 -17 -20 -27 -19 -33 5 -3 13
-14 20 -31 20 -21 0 -27 7 -35 38 -6 20 -33 64 -61 97 -28 33 -53 71 -57 84
-3 13 -3 62 1 110 6 79 4 90 -19 133 -14 26 -25 59 -25 73 0 34 -17 65 -35 65
-41 0 -24 -305 25 -435 6 -17 23 -47 38 -68 l26 -39 -23 -17 -24 -18 41 -6
c24 -4 42 -14 46 -24 11 -27 -68 -179 -118 -229 -36 -35 -50 -60 -75 -135 -17
-51 -29 -94 -27 -97 2 -2 14 2 26 8 32 17 36 5 6 -15 -23 -15 -34 -16 -88 -5
-190 37 -424 161 -591 313 -48 44 -90 77 -93 74 -6 -6 73 -105 124 -152 64
-61 192 -141 345 -215 177 -87 197 -106 197 -190 0 -50 -3 -61 -21 -71 -19
-10 -21 -17 -16 -63 3 -29 1 -59 -3 -66 -6 -9 -44 -16 -121 -21 -91 -6 -117
-11 -141 -29 -28 -21 -31 -21 -91 -7 -34 9 -89 18 -121 22 -89 10 -167 39
-301 109 -140 74 -204 99 -300 116 -88 16 -105 30 -105 86 0 34 -5 47 -22 58
-52 32 -117 26 -89 -8 8 -9 23 -16 35 -16 36 0 45 -18 39 -75 -5 -49 -4 -54
21 -70 14 -9 70 -28 123 -41 56 -14 167 -55 258 -95 189 -85 218 -95 309 -114
161 -34 342 -156 450 -305 45 -62 51 -81 26 -87 -21 -6 -28 -23 -9 -23 5 0 17
-17 26 -37 12 -29 14 -60 10 -133 -7 -143 -38 -200 -108 -200 -21 0 -39 -4
-39 -9 0 -14 105 -30 340 -51 451 -40 564 -61 775 -143 55 -22 98 -21 180 4
51 16 110 24 215 28 128 6 152 10 203 33 31 15 79 45 105 67 66 56 109 71 231
81 127 11 194 27 366 85 172 58 279 75 462 76 198 0 293 -20 293 -61 0 -26
-23 -36 -95 -44 -71 -8 -117 -24 -112 -40 5 -16 49 -23 147 -26 125 -3 142 -9
162 -52 11 -23 27 -39 40 -42 120 -23 142 -30 181 -60 57 -44 87 -90 87 -138
0 -50 -41 -130 -82 -162 -50 -37 -255 -136 -284 -136 -37 0 -78 24 -118 71
-40 48 -62 106 -71 197 -4 34 -11 64 -15 67 -29 18 -41 -120 -15 -181 8 -19
27 -46 43 -59 36 -30 94 -138 90 -168 -7 -50 -170 -101 -356 -113 -129 -8
-232 6 -319 45 -78 34 -119 39 -148 17 -19 -14 -19 -15 -1 -35 28 -31 117 -60
216 -71 49 -5 110 -18 136 -29 52 -24 105 -26 239 -11 155 18 203 39 480 209
204 125 195 125 214 17 15 -86 14 -229 -5 -479 -18 -255 -22 -455 -10 -637 14
-211 8 -216 -232 -214 -171 1 -175 5 -126 94 39 72 58 114 68 147 6 18 2 22
-21 27 -15 3 -54 10 -86 16 -95 19 -86 49 32 112 28 16 51 32 51 38 0 16 -17
12 -81 -20 -74 -38 -139 -95 -139 -124 0 -23 56 -126 68 -126 4 0 20 14 35 31
26 30 47 34 55 11 2 -6 -18 -34 -44 -62 -27 -29 -58 -68 -71 -88 l-22 -37 -1
57 c0 64 -7 88 -25 88 -21 0 -90 82 -119 142 -34 69 -43 127 -26 168 7 17 11
32 9 35 -2 2 -42 -21 -89 -50 -46 -30 -109 -64 -140 -76 -30 -12 -59 -26 -64
-30 -20 -18 4 -20 55 -5 115 34 191 8 205 -72 4 -24 22 -54 51 -84 50 -55 63
-83 63 -139 0 -28 -4 -39 -12 -37 -17 6 -101 110 -117 145 -7 15 -17 35 -21
43 -4 8 -16 16 -27 18 -46 7 -32 -58 32 -154 25 -37 45 -68 45 -70 0 -3 -77
24 -233 80 -54 20 -110 36 -124 36 -19 0 -41 -15 -77 -54 -35 -37 -63 -58 -91
-65 -83 -23 -161 -9 -222 39 -33 25 -55 25 -79 -1 -16 -17 -16 -22 -4 -29 8
-6 28 -10 44 -10 l29 0 -23 -25 c-29 -31 -17 -48 45 -64 63 -16 98 -14 205 10
195 43 194 43 205 67 9 21 14 23 60 17 164 -21 292 -60 302 -91 6 -18 -55 -35
-151 -41 -110 -8 -124 -19 -160 -132 -33 -100 -70 -165 -128 -224 -54 -54
-100 -77 -153 -77 -28 0 -43 8 -77 45 -23 25 -45 45 -49 45 -3 0 -4 -25 -1
-55 4 -54 4 -55 -23 -55 -15 0 -34 8 -41 18 -11 16 -38 17 -316 17 -337 0
-472 -12 -574 -51 -87 -32 -152 -66 -137 -71 6 -2 83 12 170 31 196 43 300 51
473 37 259 -22 456 -55 525 -88 28 -13 38 -14 64 -3 16 6 119 103 228 214 146
149 211 208 248 226 47 23 64 25 325 32 151 5 294 6 316 3 71 -10 96 -54 115
-200 14 -111 14 -1579 -1 -2040 -25 -780 -70 -903 -412 -1116 -53 -32 -88 -61
-88 -71 0 -20 51 -73 94 -95 17 -9 65 -22 107 -29 44 -7 105 -26 145 -45 l69
-34 400 3 c299 2 440 -1 560 -13 333 -31 928 -46 951 -23 4 4 -12 46 -35 94
-22 47 -41 91 -41 96 0 7 26 8 73 3 60 -5 76 -4 86 9 45 53 -116 192 -290 251
-253 86 -349 269 -399 760 -25 250 -70 935 -68 1027 l3 103 55 6 c30 4 100 20
155 37 123 39 197 49 395 56 182 7 243 21 248 55 4 22 6 23 59 17 58 -7 56 -9
38 37 -4 9 12 12 62 13 121 1 328 96 328 150 0 15 -6 19 -33 17 -18 0 -42 -9
-52 -18 -10 -9 -56 -30 -101 -46 -163 -58 -383 -93 -684 -109 -401 -21 -533
23 -543 184 -4 56 -1 65 30 111 53 79 111 104 276 114 188 13 238 40 274 151
23 67 29 100 21 100 -5 0 -30 -26 -58 -57 -60 -68 -156 -117 -278 -140 -165
-31 -237 -2 -237 95 0 174 163 468 319 576 44 31 288 97 351 95 56 -2 59 0 57
29 -2 23 1 27 23 24 70 -10 95 -89 62 -199 -34 -109 -67 -146 -186 -203 -153
-74 -321 -140 -355 -140 -21 0 -36 8 -50 28 -36 47 -42 53 -54 49 -26 -8 -12
-50 26 -81 42 -34 69 -37 205 -21 53 6 65 12 82 36 21 29 101 72 159 84 18 4
67 23 107 42 63 30 82 35 125 31 57 -6 102 -34 107 -68 5 -32 -46 -81 -126
-121 -55 -29 -75 -34 -127 -32 -68 2 -101 -10 -75 -27 21 -14 47 -13 285 10
255 25 374 44 423 69 20 10 80 58 132 107 108 99 144 119 206 109 23 -3 45 -2
48 3 9 16 -20 33 -65 39 -39 6 -41 7 -35 34 10 52 34 97 61 115 59 38 216 14
309 -47 47 -31 84 -88 71 -109 -10 -16 21 -64 73 -112 105 -98 194 -107 132
-13 -49 74 0 197 99 247 30 15 56 29 58 32 2 2 0 22 -6 44 -6 30 -5 46 4 58
13 19 35 11 35 -12 0 -10 12 -14 44 -14 61 0 107 11 103 24 -7 22 -71 56 -105
56 -33 0 -34 1 -20 22 26 39 185 174 230 196 31 14 82 23 169 31 137 12 234
29 349 62 60 17 99 22 195 21 84 -1 147 4 214 18 117 25 145 25 179 1 15 -10
40 -26 55 -35 53 -32 77 -120 111 -405 21 -167 46 -221 120 -256 29 -14 97
-64 152 -111 154 -133 171 -137 39 -9 -66 64 -141 130 -167 147 -56 36 -62 52
-83 201 -42 303 -52 346 -108 451 -34 63 -78 105 -129 122 -87 28 -93 205 -11
329 15 22 31 67 37 100 13 72 32 85 121 85 49 0 68 -5 98 -26 29 -19 58 -27
119 -34 46 -4 84 -13 88 -21 10 -15 0 -44 -33 -93 -57 -83 -45 -310 23 -451
26 -54 57 -66 98 -39 66 42 252 240 252 268 0 19 -33 -5 -114 -83 -103 -100
-133 -114 -174 -84 -34 25 -100 157 -108 217 -6 42 -4 48 27 79 47 46 101 55
400 65 l247 8 32 27 c34 29 47 33 124 40 75 7 79 16 73 187 -4 142 -10 180
-28 180 -12 0 -11 -108 1 -193 13 -91 6 -103 -67 -109 -38 -4 -79 -17 -119
-38 -52 -27 -75 -32 -155 -37 -103 -6 -229 7 -305 33 -35 11 -64 32 -104 74
-49 51 -62 59 -112 70 -35 7 -78 25 -108 46 -59 40 -94 43 -195 14 -94 -27
-153 -26 -225 5 -120 50 -162 21 -173 -122 -10 -122 -55 -181 -156 -205 -131
-30 -313 54 -429 198 -45 56 -78 120 -117 228 -22 60 -67 112 -114 132 -28 13
-57 14 -137 9 -98 -6 -102 -5 -132 19 -38 33 -57 103 -47 184 3 32 10 63 13
69 4 5 39 13 77 16 48 4 91 15 137 37 37 17 91 34 120 37 46 4 58 1 87 -21 58
-43 101 -31 132 39 10 23 25 45 32 48 8 3 40 -1 73 -8 32 -8 140 -18 239 -24
190 -10 228 -18 291 -66 57 -44 110 -24 60 22 -32 29 -27 40 41 108 53 53 59
53 158 12 97 -40 294 -61 597 -61 180 -1 260 2 268 10 19 19 -74 27 -345 28
-271 1 -295 6 -295 52 0 65 91 155 256 254 155 92 219 135 281 192 92 83 79
81 503 89 406 7 495 17 597 65 53 25 103 74 103 100 0 24 -45 16 -113 -20
-135 -72 -289 -102 -383 -76 -42 12 -48 12 -59 -3 -11 -16 -24 -16 -126 -7
-63 5 -243 10 -401 10 -162 0 -298 4 -312 10 -34 12 -33 29 5 136 41 116 82
188 145 251 55 55 93 75 191 100 59 14 115 54 99 70 -3 4 -28 -1 -54 -10 -57
-21 -102 -22 -146 -3 -43 18 -52 33 -32 55 30 34 17 47 -54 54 -25 2 -25 2
-25 -83 l0 -85 -62 -85 c-35 -47 -96 -153 -137 -236 -82 -166 -101 -188 -192
-224 -74 -29 -134 -70 -157 -107 -29 -44 -83 -77 -199 -122 -58 -23 -146 -67
-195 -98 -181 -114 -202 -116 -216 -23 -4 30 -9 55 -11 57 -2 2 -14 -12 -26
-31 -28 -46 -59 -47 -94 -5 -43 51 -39 77 22 138 26 25 64 78 85 118 58 112
80 133 134 133 45 0 113 25 113 41 0 4 -16 11 -35 14 -19 3 -51 8 -71 11 -123
19 -88 174 79 351 105 111 201 187 340 269 142 85 215 135 247 169 64 70 366
255 415 255 8 0 15 4 15 9 0 12 -113 3 -177 -15 -35 -10 -80 -36 -145 -86
-189 -147 -587 -408 -736 -482 -55 -28 -72 -41 -72 -58 0 -16 -28 7 -122 98
-112 109 -179 157 -195 141 -3 -4 16 -32 43 -62 71 -81 110 -144 133 -213 41
-120 18 -242 -51 -278 -70 -37 -247 -13 -297 40 -38 40 -25 60 41 66 39 4 64
12 80 27 13 12 45 32 71 43 34 15 47 26 45 38 -5 22 -28 17 -89 -18 -71 -42
-142 -64 -184 -56 -25 5 -53 25 -95 66 l-61 60 -62 0 c-70 0 -95 16 -137 87
-54 89 -97 108 -125 53 -19 -37 -19 -54 1 -46 21 8 57 -30 93 -103 17 -33 29
-61 26 -61 -3 0 -21 18 -41 40 -20 22 -42 40 -48 40 -6 0 -30 -20 -53 -45 -56
-59 -93 -77 -151 -73 l-47 3 52 28 c29 15 60 38 68 51 9 14 23 66 31 117 17
104 40 157 81 185 24 16 47 19 147 19 128 0 144 7 107 44 -45 45 -179 17 -275
-56 -81 -63 -106 -101 -116 -178 -16 -131 -71 -155 -200 -88 -40 21 -80 48
-88 60 -13 21 -12 23 11 32 32 12 37 28 26 82 -15 81 -18 78 69 72 76 -5 122
5 122 27 0 8 -23 14 -183 45 -99 19 -137 38 -137 69 0 29 55 80 114 107 84 38
148 22 295 -71 42 -27 63 -34 105 -35 48 0 51 2 54 26 6 53 -88 130 -255 210
-58 27 -83 44 -83 56 0 19 36 163 42 168 21 18 88 39 192 60 133 27 210 34
223 21 4 -4 -2 -24 -15 -44 -44 -71 -62 -121 -73 -199 -13 -93 0 -163 30 -163
25 0 39 39 44 128 5 90 12 98 69 84 23 -6 44 -9 46 -8 2 2 -22 19 -52 37 -30
19 -58 41 -61 49 -7 17 20 55 59 84 25 19 44 21 326 24 373 5 421 -2 506 -79
35 -32 63 -49 80 -49 39 0 25 19 -57 78 -41 28 -81 61 -90 73 -19 26 -76 38
-184 39 -84 1 -146 16 -153 37 -2 7 17 31 42 54 24 22 42 47 40 54 -7 18 -69
49 -86 42 -10 -3 -13 -15 -11 -34 6 -36 -14 -54 -85 -82 -139 -55 -451 -99
-757 -108 -115 -3 -216 -9 -224 -13 -11 -6 -3 -14 27 -29 97 -50 108 -104 36
-181 -25 -26 -70 -65 -100 -86 l-54 -37 -23 20 c-21 20 -50 27 -92 23 -13 -1
-8 -5 15 -12 73 -21 76 -38 16 -108 -24 -28 -46 -64 -50 -81 -3 -17 -12 -29
-21 -29 -8 0 -68 27 -133 61 -141 73 -197 97 -277 113 l-60 12 65 34 c57 31
73 34 139 34 l73 -1 -5 33 c-10 61 40 66 117 11 l31 -22 -23 33 c-34 47 -38
91 -13 124 17 21 51 36 149 68 70 22 150 53 178 68 68 36 258 236 251 263 -4
13 0 19 13 19 29 0 84 27 136 66 87 64 134 130 134 187 0 25 5 40 15 44 9 3
56 -13 105 -36 48 -22 98 -41 111 -41 21 0 21 1 5 19 -10 11 -48 35 -84 54
-101 53 -113 71 -123 169 -4 46 -8 83 -8 84 -1 1 -14 15 -31 32 -27 28 -30 38
-30 94 0 73 25 124 65 134 14 4 48 4 76 2 27 -3 49 -4 49 -2 0 2 -17 11 -37
19 -45 19 -83 53 -83 74 0 9 -6 36 -13 60 l-14 44 -22 -36 c-26 -42 -70 -255
-71 -339 0 -44 3 -58 15 -58 8 0 20 -10 26 -22 17 -31 6 -200 -17 -267 -17
-49 -25 -58 -69 -81 -27 -14 -77 -47 -110 -74 l-59 -49 -38 43 c-42 47 -56 85
-41 109 5 9 39 32 76 51 82 44 97 57 78 69 -32 20 -119 -26 -181 -96 -52 -59
-54 -101 -9 -142 29 -27 30 -31 20 -65 -5 -21 -21 -53 -35 -71 -26 -33 -132
-102 -142 -92 -3 3 5 38 19 79 14 40 37 141 52 223 16 89 40 185 60 235 32 83
58 197 90 390 8 52 18 105 20 118 8 32 -7 27 -34 -13 -36 -54 -67 -148 -112
-347 -71 -317 -126 -484 -203 -623 -43 -76 -112 -155 -136 -155 -11 0 -30 21
-51 55 -18 30 -36 55 -40 55 -4 0 -5 -16 -2 -35 16 -97 -148 -146 -310 -93
l-68 22 -109 -57 c-114 -59 -135 -66 -143 -44 -3 8 -16 1 -39 -20 -20 -20 -44
-33 -60 -33 -14 0 -92 26 -174 59 -82 32 -157 61 -166 65 -26 8 -22 53 5 79
19 17 24 33 25 70 0 38 12 73 55 160 90 183 115 203 333 276 156 52 287 78
459 91 155 12 279 36 269 52 -8 12 -132 4 -342 -23 -229 -29 -359 -56 -429
-90 -97 -46 -106 -38 -69 55 14 35 30 94 35 131 7 49 20 84 46 126 50 81 65
129 72 233 8 127 7 126 106 126 45 -1 129 -5 187 -10 144 -11 189 -2 364 79
102 47 154 67 162 60 16 -13 70 51 105 126 16 33 35 93 44 133 30 147 13 135
-40 -28 -48 -145 -66 -164 -195 -210 -52 -18 -132 -48 -178 -66 -64 -26 -97
-34 -146 -34 -127 0 -311 35 -335 64 -18 21 3 92 40 140 18 22 62 74 97 114
110 127 282 406 358 581 37 84 41 112 19 131 -21 17 -43 5 -50 -27 -15 -72
-30 -114 -67 -188 -84 -169 -264 -407 -337 -446 -30 -16 -36 -16 -57 -3 -22
15 -23 15 -29 -33 -7 -57 -39 -156 -90 -277 -22 -53 -48 -144 -65 -228 -16
-79 -37 -153 -49 -171 -43 -68 -51 -87 -65 -158 -31 -148 -125 -298 -301 -476
-74 -75 -108 -103 -126 -103 -34 0 -80 31 -124 84 -21 25 -52 50 -69 57 -46
18 -85 58 -92 96 -5 25 0 46 21 85 33 62 47 100 87 233 58 195 155 365 234
411 31 19 44 32 44 49 0 75 153 149 395 191 101 17 115 32 115 120 0 40 -4 64
-11 64 -6 0 -38 -25 -71 -55 -59 -55 -101 -76 -119 -58 -14 14 2 49 55 117 25
32 46 65 46 73 0 8 3 13 8 11 66 -34 85 -39 120 -27 94 31 182 163 190 284 4
63 1 80 -28 150 -48 120 -60 164 -60 227 0 57 1 58 38 75 28 14 38 25 40 46 5
41 -19 34 -72 -23 -43 -46 -46 -53 -46 -102 0 -32 14 -100 35 -168 20 -67 35
-137 35 -167 0 -47 -4 -56 -35 -88 -35 -34 -113 -81 -121 -72 -3 3 13 26 35
51 46 52 65 85 57 93 -10 11 -61 -31 -140 -114 -44 -46 -84 -83 -90 -83 -6 0
-20 17 -31 38 -20 35 -23 37 -69 35 -47 -1 -47 -1 -29 19 10 11 54 38 98 60
81 41 115 64 115 80 0 16 -49 8 -137 -22 -79 -26 -90 -28 -110 -15 -12 8 -25
15 -28 15 -4 0 -3 -51 1 -113 l7 -114 -53 -50 -52 -50 37 1 c47 1 53 -13 21
-51 -13 -16 -26 -45 -28 -63 -2 -24 -9 -36 -20 -38 -32 -6 -42 43 -41 203 1
168 18 275 58 362 31 68 32 99 5 108 -27 9 -47 -9 -55 -48 -15 -71 -61 -101
-86 -56 -34 64 55 250 167 352 19 18 74 52 122 77 66 34 88 51 90 68 5 31 -13
28 -109 -18 -47 -23 -87 -36 -92 -31 -11 11 7 77 33 119 34 55 90 73 259 83
170 11 191 14 191 34 0 24 -44 28 -239 21 -102 -3 -191 -3 -198 2 -23 15 -33
65 -33 165 0 189 47 323 143 415 98 92 199 103 348 36 90 -40 112 -42 133 -12
29 41 17 298 -14 298 -14 0 -23 -67 -16 -125 8 -67 -5 -105 -36 -105 -22 0
-88 34 -88 45 0 3 9 18 21 34 13 18 24 54 30 101 5 40 14 79 20 86 6 8 42 23
79 34 60 18 100 43 100 64 0 11 -43 2 -110 -23 -30 -11 -71 -20 -91 -21 -51 0
-61 -17 -54 -87 11 -104 -39 -158 -162 -173 -118 -15 -303 -129 -303 -187 0
-11 -6 -26 -14 -32 -22 -18 -52 2 -76 50 -12 22 -27 42 -36 46 -16 6 -64 -22
-64 -38 0 -7 18 -38 39 -70 24 -37 44 -81 52 -117 15 -74 6 -321 -16 -422 -63
-286 -191 -522 -315 -582 -49 -24 -57 -11 -69 104 -11 111 -17 125 -78 183
-41 40 -44 46 -41 86 3 39 6 44 26 44 19 0 27 9 37 38 8 23 42 69 84 112 80
82 87 107 41 133 -40 23 -54 69 -52 171 2 112 17 191 54 279 19 46 27 77 21
83 -6 6 -34 -10 -74 -41 -78 -60 -113 -71 -142 -41 -20 20 -21 24 -8 135 15
140 43 260 76 329 13 29 52 86 86 127 34 41 70 93 79 115 23 55 110 131 188
166 96 44 73 65 -74 68 -86 1 -97 11 -149 126 -55 121 -78 165 -86 165 -11 0
7 -67 51 -189 22 -62 40 -128 40 -146 0 -44 -80 -201 -124 -244 -40 -39 -84
-45 -115 -17 -10 9 -33 49 -51 89 -62 139 -71 155 -96 180 -26 27 -63 37 -130
37 -24 0 -44 5 -44 10 0 6 18 34 39 63 50 66 61 108 61 232 0 149 6 169 61
230 54 58 56 69 33 138 -20 58 -34 60 -34 5z m-85 -738 c73 -28 180 -170 205
-272 46 -181 -100 -102 -282 154 -32 44 -58 87 -58 94 0 29 83 44 135 24z
m356 -966 c40 -11 48 -79 24 -214 -20 -112 -19 -137 5 -157 39 -34 15 -123
-33 -123 -88 0 -190 193 -142 266 18 27 24 131 10 174 -19 59 38 81 136 54z
m-2419 -533 c43 -44 78 -87 78 -95 0 -35 -133 -51 -164 -20 -20 20 -24 194 -4
194 7 0 47 -36 90 -79z m2304 -138 c4 -19 2 -44 -3 -56 -10 -20 -11 -19 -22
18 -6 22 -11 53 -11 69 0 24 2 27 15 16 8 -7 17 -28 21 -47z m-2129 -72 c34
-21 171 -122 220 -161 7 -6 9 -30 6 -70 -5 -57 -4 -63 30 -113 19 -28 81 -104
137 -167 112 -127 160 -194 160 -222 0 -14 -8 -18 -38 -18 -70 0 -284 30 -320
46 -80 33 -97 66 -122 235 -10 72 -25 141 -34 153 -9 14 -55 40 -117 67 -56
24 -117 56 -137 71 -19 15 -42 28 -50 28 -32 0 -52 31 -52 80 0 72 12 81 126
95 116 14 135 12 191 -24z m2468 -403 c4 -29 18 -90 31 -137 13 -48 24 -102
24 -121 -1 -34 -1 -34 -17 -15 -27 34 -82 160 -89 204 -5 30 -2 53 11 81 10
22 21 40 26 40 4 0 10 -23 14 -52z m-941 -24 c3 -8 -1 -28 -9 -44 -18 -34
-110 -104 -129 -97 -15 6 -28 70 -19 93 4 10 14 13 37 9 26 -5 36 -1 60 24 33
34 51 39 60 15z m458 -539 c16 -14 42 -27 56 -31 77 -15 87 -20 90 -42 5 -31
-15 -52 -46 -52 -14 0 -60 -7 -104 -16 -72 -15 -81 -15 -103 0 -14 9 -25 24
-26 34 -7 112 61 167 133 107z m-247 -263 c11 -25 8 -25 105 2 72 21 147 20
190 -2 30 -14 35 -21 32 -47 -8 -66 -80 -153 -116 -139 -18 7 -19 6 -20 -123
-1 -71 -5 -96 -17 -109 -21 -21 -52 -11 -67 20 -11 24 -70 221 -79 264 -3 12
-32 49 -65 82 -33 33 -57 64 -53 70 4 6 23 10 43 8 27 -2 40 -9 47 -26z
m-1754 -469 c68 -78 139 -274 140 -388 1 -71 -5 -80 -41 -58 -59 34 -50 -15 9
-52 98 -61 96 -60 99 -97 6 -73 -78 -110 -88 -39 -5 33 -6 34 -55 36 -54 2
-96 20 -216 95 -41 27 -102 61 -135 78 -100 50 -331 270 -303 288 20 12 514
172 535 173 14 1 35 -14 55 -36z m1197 -90 c22 -60 22 -64 -3 -89 -40 -40 -60
-29 -60 33 1 76 42 113 63 56z m-642 -393 c68 -38 132 -112 139 -159 9 -53 17
-64 66 -88 57 -29 303 -96 449 -123 154 -28 195 -43 210 -80 28 -68 -33 -271
-70 -234 -6 6 -14 43 -19 82 -13 99 -30 124 -83 120 -41 -3 -42 -3 -42 32 -1
33 -3 35 -41 38 -33 3 -43 -1 -61 -24 -26 -31 -55 -27 -51 7 3 33 -47 42 -200
36 -151 -6 -158 -4 -194 70 -17 36 -24 72 -28 143 -5 73 -9 95 -20 95 -37 0
-38 -171 -2 -263 19 -47 19 -51 3 -66 -25 -22 -150 -40 -186 -26 -24 9 -28 15
-24 41 4 25 1 32 -19 40 -24 9 -24 11 -17 89 6 70 4 84 -16 121 -24 47 -21 90
8 124 53 63 118 72 198 25z m179 -27 c-1 -89 -34 -83 -43 7 -5 50 -4 52 19 48
22 -3 24 -8 24 -55z m1506 4 c13 -19 60 -67 104 -107 95 -86 117 -109 110
-120 -14 -23 -178 48 -270 118 -42 31 -51 44 -53 74 -6 72 66 95 109 35z m9
-327 c190 -50 251 -67 256 -73 3 -3 1 -14 -5 -25 -15 -28 -88 -42 -214 -42
-95 0 -106 2 -153 30 -52 29 -94 72 -94 94 0 41 90 48 210 16z m-1255 -90
c-11 -18 -87 -52 -102 -45 -14 5 -12 9 7 30 17 18 34 25 62 25 24 0 37 -4 33
-10z m2654 -104 c35 -42 -137 -106 -282 -106 -49 0 -97 14 -97 29 0 12 82 51
155 72 75 22 208 25 224 5z m-2481 -22 c24 -7 25 -10 40 -131 6 -45 21 -115
33 -156 34 -118 28 -126 -126 -171 l-50 -15 53 0 c31 -1 66 -8 82 -17 61 -37
77 -138 39 -259 -11 -37 -18 -77 -15 -88 3 -13 -2 -29 -12 -40 -9 -10 -19 -42
-22 -70 -5 -49 -7 -52 -58 -82 -31 -18 -71 -54 -93 -83 -36 -47 -46 -53 -118
-76 -44 -14 -123 -32 -175 -41 -109 -17 -301 -20 -342 -5 l-27 11 5 112 c4 90
12 130 37 207 38 111 61 153 130 235 28 32 54 67 57 78 9 30 -7 34 -25 7 -34
-52 -48 -60 -82 -48 -17 6 -101 77 -188 158 -86 82 -179 167 -208 189 -29 23
-55 50 -58 61 -10 30 22 78 68 102 35 19 58 23 142 23 97 0 102 1 187 43 81
40 135 55 233 66 57 6 465 -2 493 -10z m1007 -120 c104 -19 158 -25 214 -21
199 14 331 28 356 37 45 17 85 11 140 -20 79 -45 123 -58 284 -80 236 -32 410
-83 575 -168 58 -30 95 -55 105 -73 13 -22 21 -27 40 -22 24 6 24 5 18 -49
-24 -201 -72 -341 -140 -406 -31 -29 -152 -72 -205 -72 -56 0 -34 66 35 106
62 35 60 34 43 44 -31 20 -85 11 -127 -20 -23 -17 -65 -38 -95 -46 -29 -9
-104 -42 -166 -75 -63 -32 -124 -59 -138 -59 -19 0 -36 19 -88 98 -79 119
-132 170 -230 219 l-74 36 39 33 c22 18 55 38 74 44 24 8 35 18 35 31 0 22 -5
22 -190 19 -99 -1 -124 2 -175 21 -99 38 -139 33 -313 -40 -84 -35 -156 -60
-159 -57 -26 25 -56 420 -39 509 8 45 3 45 181 11z m1933 -414 c24 -25 45 -95
37 -119 -7 -24 -62 -48 -76 -34 -17 17 -22 85 -10 131 13 47 22 51 49 22z
m-1659 -75 c13 -13 13 -17 1 -30 -28 -27 -299 -72 -341 -56 -21 7 -21 7 2 23
53 34 117 63 169 75 66 15 148 9 169 -12z m175 -11 c51 -20 -34 -62 -101 -49
-34 6 -42 22 -21 43 12 12 95 16 122 6z m-105 -210 c3 -2 -3 -20 -12 -39 -32
-66 -25 -84 63 -168 133 -126 116 -147 -171 -207 -75 -15 -155 -38 -178 -49
-23 -12 -46 -19 -50 -16 -16 9 -23 148 -12 244 23 206 96 253 216 141 52 -50
83 -64 71 -34 -3 9 -6 20 -6 25 0 5 -18 20 -40 34 -59 37 -53 61 20 76 32 6
89 2 99 -7z m-4025 -68 c66 -27 131 -82 159 -134 33 -61 33 -68 1 -115 -14
-21 -23 -42 -19 -45 3 -4 27 -14 53 -23 25 -8 47 -20 49 -26 6 -16 -61 -87
-104 -114 -23 -14 -50 -22 -75 -21 -39 2 -137 -33 -125 -44 3 -3 22 -1 44 5
57 16 64 14 61 -16 -2 -20 2 -28 15 -31 34 -7 86 8 116 33 37 32 41 31 41 -2
0 -50 12 -57 55 -34 35 19 41 19 74 5 36 -15 52 -27 109 -78 68 -63 36 -81
-170 -97 -144 -10 -184 -19 -202 -45 -10 -13 -21 -12 -91 9 -109 34 -107 33
-305 57 -243 28 -314 49 -353 102 -26 34 -15 68 48 144 25 31 45 64 45 74 0
10 -11 42 -24 70 -14 29 -22 60 -19 69 3 9 38 47 77 85 80 78 76 103 -7 36
-141 -113 -168 -130 -208 -130 -54 0 -62 21 -39 90 11 34 31 66 51 84 19 16
33 39 34 50 0 47 140 66 446 61 177 -3 234 -7 263 -19z m173 4 c23 -21 49 -88
38 -98 -10 -10 -85 77 -85 99 0 25 21 24 47 -1z m5492 11 c20 -13 4 -30 -53
-57 -52 -24 -120 -32 -131 -14 -9 14 38 55 77 67 42 14 89 15 107 4z m755 -10
c48 -32 88 -111 56 -111 -19 0 -74 31 -102 58 -58 54 -21 97 46 53z m-7314
-21 c0 -24 -26 -63 -51 -76 -41 -21 -70 -17 -130 15 -92 49 -67 68 94 70 49 0
87 -3 87 -9z m4398 -78 c63 -118 93 -336 51 -377 -8 -8 -41 -21 -73 -27 -56
-12 -59 -12 -77 11 -23 29 -24 72 -3 193 11 66 14 119 10 181 -4 48 -4 92 -1
97 13 21 62 -20 93 -78z m777 23 c88 -44 165 -97 165 -116 0 -14 -96 -11 -174
6 -84 18 -156 54 -175 87 -12 21 -12 27 4 52 16 24 23 27 54 21 20 -3 77 -26
126 -50z m1607 -54 c63 -30 103 -42 167 -50 97 -11 117 -23 83 -52 -99 -80
-552 -90 -668 -14 -35 23 -51 60 -34 80 37 44 143 73 272 74 92 1 100 -1 180
-38z m785 -103 c130 -46 164 -68 145 -91 -7 -8 -40 -27 -73 -42 -109 -48 -210
-26 -251 56 -18 35 -23 85 -12 114 9 22 44 15 191 -37z m-4010 -96 c-9 -83
-41 -104 -67 -42 -14 33 -2 80 27 113 17 18 18 18 31 0 9 -12 12 -35 9 -71z
m3756 63 c9 -4 17 -13 17 -21 0 -35 -137 -67 -192 -45 -45 17 -35 60 17 74 24
7 133 1 158 -8z m-1113 -73 c30 -11 98 -38 150 -60 124 -53 236 -82 336 -89
75 -5 84 -4 114 18 28 21 42 24 115 23 76 -1 91 -5 162 -39 l78 -38 37 22 c20
11 43 21 51 21 21 0 42 -30 56 -80 15 -50 69 -110 100 -110 12 0 21 -3 21 -7
0 -4 -30 -37 -67 -73 -38 -36 -76 -79 -85 -97 -29 -56 -138 -97 -333 -128 -55
-8 -128 -22 -162 -31 -46 -11 -68 -12 -83 -4 -29 16 -43 48 -36 85 6 30 3 37
-27 59 -18 14 -69 42 -113 62 -43 20 -108 55 -143 77 -72 46 -120 54 -236 40
-116 -13 -134 -9 -206 53 -35 30 -76 57 -91 61 -16 3 -28 9 -28 13 0 4 18 30
40 56 44 53 80 120 80 148 0 48 161 59 270 18z m1640 2 c0 -25 -99 -184 -140
-226 -27 -27 -42 -36 -58 -31 -24 6 -102 75 -102 90 0 5 19 20 41 32 23 13 87
52 142 87 55 35 104 64 109 64 4 0 8 -7 8 -16z m-6051 -19 c116 -19 256 -65
256 -84 0 -16 -102 -76 -153 -90 -44 -13 -89 4 -190 68 -91 58 -117 84 -109
106 8 20 72 20 196 0z m4021 -3 c30 -25 21 -66 -20 -87 -32 -17 -107 -20 -129
-6 -11 7 -25 1 -48 -20 -19 -16 -51 -38 -72 -48 -43 -23 -162 -46 -192 -38
-16 4 -23 -2 -35 -33 -14 -35 -19 -38 -65 -44 -60 -8 -69 -4 -69 35 0 22 9 36
43 60 76 57 261 133 352 145 38 6 43 4 49 -17 5 -15 9 -19 13 -11 3 7 0 19 -6
26 -34 41 132 76 179 38z m-4406 -97 c79 -32 155 -85 163 -113 3 -13 3 -25 1
-27 -8 -8 -289 93 -352 127 -19 11 -19 11 4 30 30 24 95 18 184 -17z m7675 4
c36 -13 49 -47 33 -84 -8 -17 -27 -28 -69 -40 -126 -37 -387 -187 -468 -270
l-44 -45 -163 6 c-154 7 -166 6 -212 -15 -27 -11 -51 -21 -54 -21 -14 0 47 54
108 94 87 58 158 86 247 97 94 10 122 26 178 99 25 33 54 64 65 70 11 6 49 7
93 4 l75 -7 6 31 c9 38 34 60 88 77 54 17 77 18 117 4z m-3989 -129 c11 -11
20 -29 20 -40 0 -37 47 -113 140 -228 177 -219 175 -217 140 -252 -45 -45
-233 -16 -335 53 -64 43 -114 51 -253 37 -121 -12 -147 -8 -110 18 l23 16 -40
12 c-51 14 -71 49 -55 98 13 42 42 68 103 94 27 12 81 53 127 97 113 108 195
140 240 95z m334 -24 c-9 -36 9 -39 52 -9 27 18 51 26 76 25 126 -5 345 -162
336 -241 -2 -21 -13 -29 -58 -45 -30 -10 -100 -47 -154 -82 -55 -35 -107 -64
-117 -64 -27 0 -148 136 -180 204 -35 73 -36 95 -8 130 12 15 19 35 16 46 -5
20 17 60 34 60 5 0 7 -11 3 -24z m-2102 -57 c48 -11 92 -27 99 -35 14 -17 39
-120 31 -128 -11 -11 -63 -6 -180 19 -159 34 -222 53 -222 69 0 7 23 34 50 60
58 54 51 54 222 15z m3007 -128 c33 -25 67 -41 96 -45 88 -14 201 -110 231
-197 11 -32 11 -44 -1 -80 -9 -24 -18 -84 -22 -133 -3 -50 -10 -99 -15 -110
-17 -32 -88 -16 -238 52 -204 92 -284 121 -363 133 -132 19 -142 22 -145 46
-3 17 11 33 56 68 102 79 132 165 89 246 l-25 47 31 -8 c20 -6 56 -4 97 4 118
24 150 21 209 -23z m1330 -1 c109 -70 192 -160 149 -160 -7 0 -35 7 -62 15
-30 9 -90 15 -153 15 -56 0 -103 3 -103 7 0 4 18 33 40 64 22 32 40 67 40 78
0 30 19 26 89 -19z m-3124 -91 c9 -14 -24 -49 -47 -49 -21 0 -33 22 -24 45 6
17 61 21 71 4z m1265 -126 c-58 -65 -82 -105 -78 -131 4 -21 -27 -27 -65 -13
-39 15 -37 60 4 101 29 29 179 112 188 104 2 -1 -20 -29 -49 -61z m-1350 -114
c9 -17 19 -20 53 -17 49 4 61 -18 28 -51 -40 -40 -153 -19 -181 34 -18 34 1
55 51 55 29 0 41 -5 49 -21z m209 -134 c38 -26 54 -30 111 -30 58 0 70 4 99
28 31 26 101 39 101 19 0 -42 -188 -114 -296 -114 -56 0 -78 21 -70 65 5 22 2
27 -14 27 -22 0 -28 35 -7 43 13 5 14 5 76 -38z m778 -40 c25 -17 137 -182
148 -216 15 -48 -79 -85 -140 -56 -25 12 -41 33 -66 83 -64 130 -28 249 58
189z m787 -20 c98 -18 110 -26 60 -40 -32 -9 -39 -15 -39 -35 0 -35 -29 -37
-52 -5 -40 59 -50 65 -96 59 -46 -7 -153 11 -162 27 -10 15 205 11 289 -6z
m-477 -106 c-7 -53 4 -69 44 -69 42 0 57 -23 64 -97 3 -38 11 -92 17 -121 5
-30 7 -64 4 -77 -11 -43 -172 -134 -211 -119 -25 10 -18 65 25 184 44 123 52
186 23 177 -67 -21 -63 -23 -63 21 0 51 35 148 58 161 29 17 45 -7 39 -60z
m695 -46 c30 -32 68 -104 68 -128 0 -29 -24 -10 -50 38 -14 25 -36 57 -48 70
-12 13 -22 29 -22 35 0 21 25 13 52 -15z m-213 -3 c76 -25 160 -75 236 -139
54 -47 63 -51 111 -51 67 0 135 -13 207 -40 49 -18 59 -26 64 -51 13 -66 61
-62 149 11 172 145 194 145 231 3 41 -157 107 -227 328 -348 156 -85 212 -125
202 -142 -4 -6 -28 -13 -54 -17 -30 -4 -85 -27 -148 -61 -173 -95 -204 -108
-221 -94 -17 14 -17 14 -34 -29 -8 -22 -21 -34 -39 -38 -59 -13 -88 -31 -167
-106 -45 -42 -95 -80 -111 -84 -40 -10 -53 -23 -53 -53 0 -14 -9 -45 -20 -69
-22 -48 -121 -157 -162 -178 -25 -13 -28 -12 -38 6 -6 11 -19 20 -30 20 -19 0
-105 81 -179 171 -74 89 -165 162 -292 235 -66 37 -143 88 -171 112 -62 52
-98 72 -134 72 -46 0 -110 38 -164 97 -53 58 -62 90 -33 119 48 47 142 57 244
23 92 -30 169 -23 210 18 36 35 51 91 43 153 -9 60 -27 94 -66 121 -56 37
-139 122 -159 161 -21 41 -25 108 -9 139 31 56 153 75 259 39z m-1031 -34 c90
-47 148 -184 186 -439 12 -81 22 -117 42 -147 84 -126 12 -238 -241 -375 -71
-38 -143 -84 -160 -101 -17 -17 -46 -34 -65 -37 -18 -4 -48 -18 -66 -32 -40
-30 -130 -55 -201 -55 -42 0 -57 5 -71 21 -9 11 -40 31 -68 44 -28 12 -63 38
-77 56 -116 153 9 567 228 754 32 28 88 79 124 115 195 192 285 240 369 196z
m330 -224 c26 -17 100 -164 109 -216 7 -43 -12 -55 -54 -33 -44 23 -79 66
-112 137 -56 118 -30 169 57 112z m571 -117 c34 -90 26 -132 -29 -155 -59 -24
-174 12 -168 53 2 17 13 25 44 32 53 13 73 30 96 83 10 23 23 42 28 42 5 0 18
-25 29 -55z m2123 -40 c8 -18 8 -84 1 -245 -9 -204 -11 -223 -31 -242 -26 -26
-87 -37 -217 -37 -104 -1 -244 -20 -330 -45 -113 -33 -200 -29 -200 10 0 26
122 98 459 269 l276 139 0 82 c0 44 3 84 7 87 12 13 23 7 35 -18z m-2626 -477
c16 -11 65 -56 109 -99 83 -81 118 -102 154 -92 34 9 67 -5 116 -47 53 -46 95
-70 124 -70 28 0 209 -93 254 -131 46 -38 44 -55 -6 -51 -74 7 -208 -84 -223
-151 -15 -70 -150 -230 -239 -282 -23 -14 -78 -31 -129 -40 -139 -24 -262 -18
-216 10 29 18 -7 114 -59 157 -16 14 -45 28 -64 32 -42 8 -49 22 -36 72 15 51
71 107 153 151 38 21 71 43 73 50 13 37 -175 134 -306 158 -52 9 -112 16 -135
14 -57 -3 -66 -1 -66 14 0 25 186 133 330 191 77 31 97 48 106 90 11 54 17 57
60 24z"/>
<path d="M5720 7207 c0 -6 174 -144 197 -156 28 -14 33 -14 33 3 0 15 -89 82
-172 129 -44 26 -58 31 -58 24z"/>
<path d="M6452 12087 c-23 -25 -29 -57 -11 -57 18 0 68 33 74 48 14 37 -31 43
-63 9z"/>
<path d="M5170 11012 c0 -17 200 -182 221 -182 24 0 4 33 -47 78 -58 52 -174
121 -174 104z"/>
<path d="M7045 10117 c-15 -58 12 -176 37 -161 14 9 5 108 -15 154 l-14 35 -8
-28z"/>
<path d="M8617 9189 c-21 -11 -68 -49 -105 -85 l-67 -64 50 30 c28 17 79 48
115 69 60 36 80 60 55 67 -5 2 -27 -6 -48 -17z"/>
<path d="M8772 8912 c-31 -31 -79 -73 -106 -92 -56 -41 -42 -51 29 -20 60 26
118 71 144 114 48 76 10 75 -67 -2z"/>
<path d="M2450 8300 c0 -5 25 -10 56 -10 34 0 53 4 49 10 -3 6 -28 10 -56 10
-27 0 -49 -4 -49 -10z"/>
<path d="M2630 8300 c0 -5 1 -10 3 -10 107 -8 183 -23 226 -44 55 -28 76 -32
87 -15 12 20 -23 41 -102 60 -85 20 -214 26 -214 9z"/>
<path d="M2996 8272 c-11 -18 22 -34 86 -42 72 -9 92 0 55 25 -30 19 -131 32
-141 17z"/>
<path d="M3672 7570 c-62 -22 -132 -60 -132 -72 0 -4 11 -8 24 -8 28 0 186 77
186 91 0 13 -17 10 -78 -11z"/>
<path d="M10613 7491 c-96 -47 -109 -61 -56 -61 78 0 173 47 173 86 0 23 -31
16 -117 -25z"/>
<path d="M8810 7206 c0 -56 42 -118 56 -82 6 16 -34 106 -47 106 -5 0 -9 -11
-9 -24z"/>
<path d="M9400 6261 c0 -19 118 -101 145 -101 3 0 5 16 5 35 0 33 -2 35 -32
35 -18 0 -46 9 -63 20 -32 21 -55 26 -55 11z"/>
</g>
</svg>
